#N canvas 47 23 1327 785 10;
#X msg 1951 941;
#X obj 16 63 textile -4.5 3.5;
#X obj 16 105 textile -4.5 2.5;
#X obj 16 147 textile -4.5 1.5;
#X obj 16 189 textile -4.5 0.5;
#X obj 16 231 textile -4.5 -0.5;
#X obj 16 273 textile -4.5 -1.5;
#X obj 16 315 textile -4.5 -2.5;
#X obj 16 357 textile -4.5 -3.5;
#X obj 153 64 textile -3.5 3.5;
#X obj 153 106 textile -3.5 2.5;
#X obj 153 148 textile -3.5 1.5;
#X obj 153 190 textile -3.5 0.5;
#X obj 153 232 textile -3.5 -0.5;
#X obj 153 274 textile -3.5 -1.5;
#X obj 153 316 textile -3.5 -2.5;
#X obj 153 358 textile -3.5 -3.5;
#X obj 288 65 textile -2.5 3.5;
#X obj 288 107 textile -2.5 2.5;
#X obj 288 149 textile -2.5 1.5;
#X obj 288 191 textile -2.5 0.5;
#X obj 288 233 textile -2.5 -0.5;
#X obj 288 275 textile -2.5 -1.5;
#X obj 288 317 textile -2.5 -2.5;
#X obj 288 359 textile -2.5 -3.5;
#X obj 428 66 textile -1.5 3.5;
#X obj 428 108 textile -1.5 2.5;
#X obj 428 150 textile -1.5 1.5;
#X obj 428 192 textile -1.5 0.5;
#X obj 428 234 textile -1.5 -0.5;
#X obj 428 276 textile -1.5 -1.5;
#X obj 428 318 textile -1.5 -2.5;
#X obj 428 360 textile -1.5 -3.5;
#X obj 553 67 textile -0.5 3.5;
#X obj 553 109 textile -0.5 2.5;
#X obj 553 151 textile -0.5 1.5;
#X obj 553 193 textile -0.5 0.5;
#X obj 553 235 textile -0.5 -0.5;
#X obj 553 277 textile -0.5 -1.5;
#X obj 553 319 textile -0.5 -2.5;
#X obj 553 361 textile -0.5 -3.5;
#X obj 681 67 textile 0.5 3.5;
#X obj 681 109 textile 0.5 2.5;
#X obj 681 151 textile 0.5 1.5;
#X obj 681 193 textile 0.5 0.5;
#X obj 681 235 textile 0.5 -0.5;
#X obj 681 277 textile 0.5 -1.5;
#X obj 681 319 textile 0.5 -2.5;
#X obj 681 361 textile 0.5 -3.5;
#X obj 825 69 textile 1.5 3.5;
#X obj 825 111 textile 1.5 2.5;
#X obj 825 153 textile 1.5 1.5;
#X obj 825 195 textile 1.5 0.5;
#X obj 825 237 textile 1.5 -0.5;
#X obj 825 279 textile 1.5 -1.5;
#X obj 825 321 textile 1.5 -2.5;
#X obj 825 362 textile 1.5 -3.5;
#X obj 952 71 textile 2.5 3.5;
#X obj 952 113 textile 2.5 2.5;
#X obj 952 155 textile 2.5 1.5;
#X obj 952 196 textile 2.5 0.5;
#X obj 952 239 textile 2.5 -0.5;
#X obj 952 281 textile 2.5 -1.5;
#X obj 952 323 textile 2.5 -2.5;
#X obj 952 365 textile 2.5 -3.5;
#X obj 1083 71 textile 3.5 3.5;
#X obj 1083 113 textile 3.5 2.5;
#X obj 1083 155 textile 3.5 1.5;
#X obj 1083 197 textile 3.5 0.5;
#X obj 1083 239 textile 3.5 -0.5;
#X obj 1083 281 textile 3.5 -1.5;
#X obj 1083 323 textile 3.5 -2.5;
#X obj 1083 365 textile 3.5 -3.5;
#X obj 1209 71 textile 4.5 3.5;
#X obj 1208 113 textile 4.5 2.5;
#X obj 1208 155 textile 4.5 1.5;
#X obj 1208 197 textile 4.5 0.5;
#X obj 1208 239 textile 4.5 -0.5;
#X obj 1208 281 textile 4.5 -1.5;
#X obj 1208 323 textile 4.5 -2.5;
#X obj 1208 365 textile 4.5 -3.5;
#X obj 668 11 gemhead;
#X obj 817 10 inlet;
#X text 868 11 close sound;
#X obj 998 12 inlet;
#X text 1048 13 talk sound;
#X obj -117 65 textile -5.5 3.5;
#X obj -117 107 textile -5.5 2.5;
#X obj -117 149 textile -5.5 1.5;
#X obj -117 191 textile -5.5 0.5;
#X obj -117 233 textile -5.5 -0.5;
#X obj -117 275 textile -5.5 -1.5;
#X obj -117 317 textile -5.5 -2.5;
#X obj -117 359 textile -5.5 -3.5;
#X obj -239 65 textile -6.5 3.5;
#X obj -239 107 textile -6.5 2.5;
#X obj -239 149 textile -6.5 1.5;
#X obj -238 191 textile -6.5 0.5;
#X obj -239 233 textile -6.5 -0.5;
#X obj -239 275 textile -6.5 -1.5;
#X obj -239 317 textile -6.5 -2.5;
#X obj -239 359 textile -6.5 -3.5;
#X obj 1337 73 textile 5.5 3.5;
#X obj 1336 115 textile 5.5 2.5;
#X obj 1336 157 textile 5.5 1.5;
#X obj 1336 199 textile 5.5 0.5;
#X obj 1336 241 textile 5.5 -0.5;
#X obj 1336 283 textile 5.5 -1.5;
#X obj 1336 325 textile 5.5 -2.5;
#X obj 1336 367 textile 5.5 -3.5;
#X obj 1480 73 textile 6.5 3.5;
#X obj 1480 115 textile 6.5 2.5;
#X obj 1480 157 textile 6.5 1.5;
#X obj 1479 199 textile 6.5 0.5;
#X obj 1480 241 textile 6.5 -0.5;
#X obj 1480 283 textile 6.5 -1.5;
#X obj 1480 325 textile 6.5 -2.5;
#X obj 1479 367 textile 6.5 -3.5;
#X obj 1062 710 loadbang;
#X msg 1062 731 1;
#X obj 1005 734 *~;
#X obj 88 24 textile 6.5 -3.5;
#X text 110 4 x_Position;
#X text 188 4 y_Positoin;
#X obj 1005 755 outlet~;
#X connect 1 0 120 1;
#X connect 1 1 120 0;
#X connect 2 0 120 1;
#X connect 2 1 120 0;
#X connect 3 0 120 1;
#X connect 3 1 120 0;
#X connect 4 0 120 1;
#X connect 4 1 120 0;
#X connect 5 0 120 1;
#X connect 5 1 120 0;
#X connect 6 0 120 1;
#X connect 6 1 120 0;
#X connect 7 0 120 1;
#X connect 7 1 120 0;
#X connect 8 0 120 1;
#X connect 8 1 120 0;
#X connect 9 0 120 1;
#X connect 9 1 120 0;
#X connect 10 0 120 1;
#X connect 10 1 120 0;
#X connect 11 0 120 1;
#X connect 11 1 120 0;
#X connect 12 0 120 1;
#X connect 12 1 120 0;
#X connect 13 0 120 1;
#X connect 13 1 120 0;
#X connect 14 0 120 1;
#X connect 14 1 120 0;
#X connect 15 0 120 1;
#X connect 15 1 120 0;
#X connect 16 0 120 1;
#X connect 16 1 120 0;
#X connect 17 0 120 1;
#X connect 17 1 120 0;
#X connect 18 0 120 1;
#X connect 18 1 120 0;
#X connect 19 0 120 1;
#X connect 19 1 120 0;
#X connect 20 0 120 1;
#X connect 20 1 120 0;
#X connect 21 0 120 1;
#X connect 21 1 120 0;
#X connect 22 0 120 1;
#X connect 22 1 120 0;
#X connect 23 0 120 1;
#X connect 23 1 120 0;
#X connect 24 0 120 1;
#X connect 24 1 120 0;
#X connect 25 0 120 1;
#X connect 25 1 120 0;
#X connect 26 0 120 1;
#X connect 26 1 120 0;
#X connect 27 0 120 1;
#X connect 27 1 120 0;
#X connect 28 0 120 1;
#X connect 28 1 120 0;
#X connect 29 0 120 1;
#X connect 29 1 120 0;
#X connect 30 0 120 1;
#X connect 30 1 120 0;
#X connect 31 0 120 1;
#X connect 31 1 120 0;
#X connect 32 0 120 1;
#X connect 32 1 120 0;
#X connect 33 0 120 1;
#X connect 33 1 120 0;
#X connect 34 0 120 1;
#X connect 34 1 120 0;
#X connect 35 0 120 1;
#X connect 35 1 120 0;
#X connect 36 0 120 1;
#X connect 36 1 120 0;
#X connect 37 0 120 1;
#X connect 37 1 120 0;
#X connect 38 0 120 1;
#X connect 38 1 120 0;
#X connect 39 0 120 1;
#X connect 39 1 120 0;
#X connect 40 0 120 1;
#X connect 40 1 120 0;
#X connect 41 0 120 1;
#X connect 41 1 120 0;
#X connect 42 0 120 1;
#X connect 42 1 120 0;
#X connect 43 0 120 1;
#X connect 43 1 120 0;
#X connect 44 0 120 1;
#X connect 44 1 120 0;
#X connect 45 0 120 1;
#X connect 45 1 120 0;
#X connect 46 0 120 1;
#X connect 46 1 120 0;
#X connect 47 0 120 1;
#X connect 47 1 120 0;
#X connect 48 0 120 1;
#X connect 48 1 120 0;
#X connect 49 0 120 1;
#X connect 49 1 120 0;
#X connect 50 0 120 1;
#X connect 50 1 120 0;
#X connect 51 0 120 1;
#X connect 51 1 120 0;
#X connect 52 0 120 1;
#X connect 52 1 120 0;
#X connect 53 0 120 1;
#X connect 53 1 120 0;
#X connect 54 0 120 1;
#X connect 54 1 120 0;
#X connect 55 0 120 1;
#X connect 55 1 120 0;
#X connect 56 0 120 1;
#X connect 56 1 120 0;
#X connect 57 0 120 1;
#X connect 57 1 120 0;
#X connect 58 0 120 1;
#X connect 58 1 120 0;
#X connect 59 0 120 1;
#X connect 59 1 120 0;
#X connect 60 0 120 1;
#X connect 60 1 120 0;
#X connect 61 0 120 1;
#X connect 61 1 120 0;
#X connect 62 0 120 1;
#X connect 62 1 120 0;
#X connect 63 0 120 1;
#X connect 63 1 120 0;
#X connect 64 0 120 1;
#X connect 64 1 120 0;
#X connect 65 0 120 1;
#X connect 65 1 120 0;
#X connect 66 0 120 1;
#X connect 66 1 120 0;
#X connect 67 0 120 1;
#X connect 67 1 120 0;
#X connect 68 0 120 1;
#X connect 68 1 120 0;
#X connect 69 0 120 1;
#X connect 69 1 120 0;
#X connect 70 0 120 1;
#X connect 70 1 120 0;
#X connect 71 0 120 1;
#X connect 71 1 120 0;
#X connect 72 0 120 1;
#X connect 72 1 120 0;
#X connect 73 0 120 1;
#X connect 73 1 120 0;
#X connect 74 0 120 1;
#X connect 74 1 120 0;
#X connect 75 0 120 1;
#X connect 75 1 120 0;
#X connect 76 0 120 1;
#X connect 76 1 120 0;
#X connect 77 0 120 1;
#X connect 77 1 120 0;
#X connect 78 0 120 1;
#X connect 78 1 120 0;
#X connect 79 0 120 1;
#X connect 79 1 120 0;
#X connect 80 0 120 1;
#X connect 80 1 120 0;
#X connect 81 0 48 0;
#X connect 81 0 58 0;
#X connect 81 0 78 0;
#X connect 81 0 33 0;
#X connect 81 0 80 0;
#X connect 81 0 79 0;
#X connect 81 0 77 0;
#X connect 81 0 76 0;
#X connect 81 0 75 0;
#X connect 81 0 74 0;
#X connect 81 0 73 0;
#X connect 81 0 72 0;
#X connect 81 0 71 0;
#X connect 81 0 70 0;
#X connect 81 0 69 0;
#X connect 81 0 68 0;
#X connect 81 0 67 0;
#X connect 81 0 66 0;
#X connect 81 0 65 0;
#X connect 81 0 64 0;
#X connect 81 0 63 0;
#X connect 81 0 62 0;
#X connect 81 0 61 0;
#X connect 81 0 60 0;
#X connect 81 0 59 0;
#X connect 81 0 57 0;
#X connect 81 0 56 0;
#X connect 81 0 55 0;
#X connect 81 0 54 0;
#X connect 81 0 53 0;
#X connect 81 0 52 0;
#X connect 81 0 51 0;
#X connect 81 0 50 0;
#X connect 81 0 49 0;
#X connect 81 0 47 0;
#X connect 81 0 46 0;
#X connect 81 0 45 0;
#X connect 81 0 44 0;
#X connect 81 0 43 0;
#X connect 81 0 42 0;
#X connect 81 0 41 0;
#X connect 81 0 40 0;
#X connect 81 0 39 0;
#X connect 81 0 38 0;
#X connect 81 0 37 0;
#X connect 81 0 36 0;
#X connect 81 0 35 0;
#X connect 81 0 34 0;
#X connect 81 0 32 0;
#X connect 81 0 31 0;
#X connect 81 0 30 0;
#X connect 81 0 29 0;
#X connect 81 0 28 0;
#X connect 81 0 27 0;
#X connect 81 0 26 0;
#X connect 81 0 25 0;
#X connect 81 0 24 0;
#X connect 81 0 23 0;
#X connect 81 0 22 0;
#X connect 81 0 21 0;
#X connect 81 0 20 0;
#X connect 81 0 19 0;
#X connect 81 0 18 0;
#X connect 81 0 17 0;
#X connect 81 0 16 0;
#X connect 81 0 15 0;
#X connect 81 0 14 0;
#X connect 81 0 13 0;
#X connect 81 0 12 0;
#X connect 81 0 11 0;
#X connect 81 0 10 0;
#X connect 81 0 9 0;
#X connect 81 0 8 0;
#X connect 81 0 7 0;
#X connect 81 0 6 0;
#X connect 81 0 5 0;
#X connect 81 0 4 0;
#X connect 81 0 3 0;
#X connect 81 0 2 0;
#X connect 81 0 1 0;
#X connect 81 0 94 0;
#X connect 81 0 101 0;
#X connect 81 0 100 0;
#X connect 81 0 99 0;
#X connect 81 0 98 0;
#X connect 81 0 97 0;
#X connect 81 0 96 0;
#X connect 81 0 95 0;
#X connect 81 0 93 0;
#X connect 81 0 92 0;
#X connect 81 0 91 0;
#X connect 81 0 90 0;
#X connect 81 0 89 0;
#X connect 81 0 88 0;
#X connect 81 0 87 0;
#X connect 81 0 86 0;
#X connect 81 0 109 0;
#X connect 81 0 108 0;
#X connect 81 0 107 0;
#X connect 81 0 106 0;
#X connect 81 0 105 0;
#X connect 81 0 104 0;
#X connect 81 0 103 0;
#X connect 81 0 102 0;
#X connect 81 0 110 0;
#X connect 81 0 111 0;
#X connect 81 0 112 0;
#X connect 81 0 113 0;
#X connect 81 0 114 0;
#X connect 81 0 115 0;
#X connect 81 0 116 0;
#X connect 81 0 117 0;
#X connect 82 0 48 1;
#X connect 82 0 58 1;
#X connect 82 0 56 1;
#X connect 82 0 80 1;
#X connect 82 0 79 1;
#X connect 82 0 78 1;
#X connect 82 0 77 1;
#X connect 82 0 76 1;
#X connect 82 0 75 1;
#X connect 82 0 74 1;
#X connect 82 0 73 1;
#X connect 82 0 72 1;
#X connect 82 0 71 1;
#X connect 82 0 70 1;
#X connect 82 0 69 1;
#X connect 82 0 68 1;
#X connect 82 0 67 1;
#X connect 82 0 66 1;
#X connect 82 0 65 1;
#X connect 82 0 64 1;
#X connect 82 0 63 1;
#X connect 82 0 62 1;
#X connect 82 0 61 1;
#X connect 82 0 60 1;
#X connect 82 0 59 1;
#X connect 82 0 57 1;
#X connect 82 0 55 1;
#X connect 82 0 54 1;
#X connect 82 0 53 1;
#X connect 82 0 52 1;
#X connect 82 0 51 1;
#X connect 82 0 50 1;
#X connect 82 0 49 1;
#X connect 82 0 47 1;
#X connect 82 0 46 1;
#X connect 82 0 45 1;
#X connect 82 0 44 1;
#X connect 82 0 43 1;
#X connect 82 0 42 1;
#X connect 82 0 41 1;
#X connect 82 0 40 1;
#X connect 82 0 39 1;
#X connect 82 0 38 1;
#X connect 82 0 37 1;
#X connect 82 0 36 1;
#X connect 82 0 35 1;
#X connect 82 0 34 1;
#X connect 82 0 33 1;
#X connect 82 0 32 1;
#X connect 82 0 31 1;
#X connect 82 0 30 1;
#X connect 82 0 29 1;
#X connect 82 0 28 1;
#X connect 82 0 27 1;
#X connect 82 0 26 1;
#X connect 82 0 25 1;
#X connect 82 0 24 1;
#X connect 82 0 23 1;
#X connect 82 0 22 1;
#X connect 82 0 21 1;
#X connect 82 0 20 1;
#X connect 82 0 19 1;
#X connect 82 0 18 1;
#X connect 82 0 17 1;
#X connect 82 0 16 1;
#X connect 82 0 15 1;
#X connect 82 0 14 1;
#X connect 82 0 13 1;
#X connect 82 0 12 1;
#X connect 82 0 11 1;
#X connect 82 0 10 1;
#X connect 82 0 9 1;
#X connect 82 0 8 1;
#X connect 82 0 7 1;
#X connect 82 0 6 1;
#X connect 82 0 5 1;
#X connect 82 0 4 1;
#X connect 82 0 3 1;
#X connect 82 0 2 1;
#X connect 82 0 1 1;
#X connect 82 0 86 1;
#X connect 82 0 101 1;
#X connect 82 0 100 1;
#X connect 82 0 99 1;
#X connect 82 0 98 1;
#X connect 82 0 97 1;
#X connect 82 0 96 1;
#X connect 82 0 95 1;
#X connect 82 0 94 1;
#X connect 82 0 93 1;
#X connect 82 0 92 1;
#X connect 82 0 91 1;
#X connect 82 0 90 1;
#X connect 82 0 89 1;
#X connect 82 0 88 1;
#X connect 82 0 87 1;
#X connect 82 0 109 1;
#X connect 82 0 108 1;
#X connect 82 0 107 1;
#X connect 82 0 106 1;
#X connect 82 0 105 1;
#X connect 82 0 104 1;
#X connect 82 0 103 1;
#X connect 82 0 102 1;
#X connect 82 0 110 1;
#X connect 82 0 111 1;
#X connect 82 0 112 1;
#X connect 82 0 113 1;
#X connect 82 0 114 1;
#X connect 82 0 115 1;
#X connect 82 0 116 1;
#X connect 82 0 117 1;
#X connect 84 0 48 2;
#X connect 84 0 73 2;
#X connect 84 0 80 2;
#X connect 84 0 79 2;
#X connect 84 0 78 2;
#X connect 84 0 77 2;
#X connect 84 0 76 2;
#X connect 84 0 75 2;
#X connect 84 0 74 2;
#X connect 84 0 72 2;
#X connect 84 0 71 2;
#X connect 84 0 70 2;
#X connect 84 0 69 2;
#X connect 84 0 68 2;
#X connect 84 0 67 2;
#X connect 84 0 66 2;
#X connect 84 0 65 2;
#X connect 84 0 64 2;
#X connect 84 0 63 2;
#X connect 84 0 62 2;
#X connect 84 0 61 2;
#X connect 84 0 60 2;
#X connect 84 0 59 2;
#X connect 84 0 58 2;
#X connect 84 0 57 2;
#X connect 84 0 56 2;
#X connect 84 0 55 2;
#X connect 84 0 54 2;
#X connect 84 0 53 2;
#X connect 84 0 52 2;
#X connect 84 0 51 2;
#X connect 84 0 50 2;
#X connect 84 0 49 2;
#X connect 84 0 47 2;
#X connect 84 0 46 2;
#X connect 84 0 45 2;
#X connect 84 0 44 2;
#X connect 84 0 43 2;
#X connect 84 0 42 2;
#X connect 84 0 41 2;
#X connect 84 0 40 2;
#X connect 84 0 39 2;
#X connect 84 0 38 2;
#X connect 84 0 37 2;
#X connect 84 0 36 2;
#X connect 84 0 35 2;
#X connect 84 0 34 2;
#X connect 84 0 33 2;
#X connect 84 0 32 2;
#X connect 84 0 31 2;
#X connect 84 0 30 2;
#X connect 84 0 29 2;
#X connect 84 0 28 2;
#X connect 84 0 27 2;
#X connect 84 0 26 2;
#X connect 84 0 25 2;
#X connect 84 0 24 2;
#X connect 84 0 23 2;
#X connect 84 0 22 2;
#X connect 84 0 21 2;
#X connect 84 0 20 2;
#X connect 84 0 19 2;
#X connect 84 0 18 2;
#X connect 84 0 17 2;
#X connect 84 0 16 2;
#X connect 84 0 15 2;
#X connect 84 0 14 2;
#X connect 84 0 13 2;
#X connect 84 0 12 2;
#X connect 84 0 11 2;
#X connect 84 0 10 2;
#X connect 84 0 9 2;
#X connect 84 0 8 2;
#X connect 84 0 7 2;
#X connect 84 0 6 2;
#X connect 84 0 5 2;
#X connect 84 0 4 2;
#X connect 84 0 3 2;
#X connect 84 0 2 2;
#X connect 84 0 1 2;
#X connect 84 0 86 2;
#X connect 84 0 101 2;
#X connect 84 0 100 2;
#X connect 84 0 99 2;
#X connect 84 0 98 2;
#X connect 84 0 97 2;
#X connect 84 0 96 2;
#X connect 84 0 95 2;
#X connect 84 0 94 2;
#X connect 84 0 93 2;
#X connect 84 0 92 2;
#X connect 84 0 91 2;
#X connect 84 0 90 2;
#X connect 84 0 89 2;
#X connect 84 0 88 2;
#X connect 84 0 87 2;
#X connect 84 0 102 2;
#X connect 84 0 109 2;
#X connect 84 0 108 2;
#X connect 84 0 107 2;
#X connect 84 0 106 2;
#X connect 84 0 105 2;
#X connect 84 0 104 2;
#X connect 84 0 103 2;
#X connect 84 0 110 2;
#X connect 84 0 111 2;
#X connect 84 0 112 2;
#X connect 84 0 113 2;
#X connect 84 0 114 2;
#X connect 84 0 115 2;
#X connect 84 0 116 2;
#X connect 84 0 117 2;
#X connect 86 0 120 1;
#X connect 86 1 120 0;
#X connect 87 0 120 1;
#X connect 87 1 120 0;
#X connect 88 0 120 1;
#X connect 88 1 120 0;
#X connect 89 0 120 1;
#X connect 89 1 120 0;
#X connect 90 0 120 1;
#X connect 90 1 120 0;
#X connect 91 0 120 1;
#X connect 91 1 120 0;
#X connect 92 0 120 1;
#X connect 92 1 120 0;
#X connect 93 0 120 1;
#X connect 93 1 120 0;
#X connect 94 0 120 1;
#X connect 94 1 120 0;
#X connect 95 0 120 1;
#X connect 95 1 120 0;
#X connect 96 0 120 1;
#X connect 96 1 120 0;
#X connect 97 0 120 1;
#X connect 97 1 120 0;
#X connect 98 0 120 1;
#X connect 98 1 120 0;
#X connect 99 0 120 1;
#X connect 99 1 120 0;
#X connect 100 0 120 1;
#X connect 100 1 120 0;
#X connect 101 0 120 1;
#X connect 101 1 120 0;
#X connect 102 0 120 1;
#X connect 102 1 120 0;
#X connect 103 0 120 1;
#X connect 103 1 120 0;
#X connect 104 0 120 1;
#X connect 104 1 120 0;
#X connect 105 0 120 1;
#X connect 105 1 120 0;
#X connect 106 0 120 1;
#X connect 106 1 120 0;
#X connect 107 0 120 1;
#X connect 107 1 120 0;
#X connect 108 0 120 1;
#X connect 108 1 120 0;
#X connect 109 0 120 1;
#X connect 109 1 120 0;
#X connect 110 0 120 1;
#X connect 110 1 120 0;
#X connect 111 0 120 1;
#X connect 111 1 120 0;
#X connect 112 0 120 1;
#X connect 112 1 120 0;
#X connect 113 0 120 1;
#X connect 113 1 120 0;
#X connect 114 0 120 1;
#X connect 114 1 120 0;
#X connect 115 0 120 1;
#X connect 115 1 120 0;
#X connect 116 0 120 1;
#X connect 116 1 120 0;
#X connect 117 0 120 1;
#X connect 117 1 120 0;
#X connect 118 0 119 0;
#X connect 120 0 124 0;
