#N canvas 952 113 450 300 10;
#X obj 17 64 route 0 1 2 3 4 5 6 7 8 9 10 11 12 13 14 15 16 17 18 19
20;
#X obj 39 268 outlet;
#X obj 18 2 inlet;
#X obj 17 22 metro 5000;
#X msg 17 85 open pattern1.jpg;
#X msg 33 105 open pattern2.jpg;
#X msg 48 124 open pattern3.jpg;
#X msg 66 143 open pattern4.jpg;
#X msg 84 164 open pattern5.jpg;
#X msg 100 187 open pattern6.jpg;
#X msg 115 206 open pattern7.jpg;
#X msg 177 87 open pattern8.jpg;
#X msg 195 109 open pattern9.jpg;
#X msg 209 129 open pattern10.jpg;
#X msg 222 149 open pattern11.jpg;
#X msg 236 169 open pattern12.jpg;
#X obj 17 43 random 12;
#X connect 0 0 4 0;
#X connect 0 1 5 0;
#X connect 0 2 6 0;
#X connect 0 3 7 0;
#X connect 0 4 8 0;
#X connect 0 5 9 0;
#X connect 0 6 10 0;
#X connect 0 7 11 0;
#X connect 0 8 12 0;
#X connect 0 9 13 0;
#X connect 0 10 14 0;
#X connect 0 11 15 0;
#X connect 2 0 3 0;
#X connect 3 0 16 0;
#X connect 4 0 1 0;
#X connect 5 0 1 0;
#X connect 6 0 1 0;
#X connect 7 0 1 0;
#X connect 8 0 1 0;
#X connect 9 0 1 0;
#X connect 10 0 1 0;
#X connect 11 0 1 0;
#X connect 12 0 1 0;
#X connect 13 0 1 0;
#X connect 14 0 1 0;
#X connect 15 0 1 0;
#X connect 16 0 0 0;
