#N canvas 312 61 588 652 10;
#X obj 24 4 cnv 100 800 400 empty empty Mic_Controller 10 30 0 14 -233017
-66577 0;
#X obj 966 -7 cnv 100 500 800 empty empty Text_Controller 20 12 0 14
-262130 -66577 0;
#X obj 31 464 cnv 15 900 700 empty empty Step_Display 20 12 0 14 -261682
-66577 0;
#X obj 30 155 tgl 15 0 empty empty empty 17 7 0 10 -262144 -1 -1 1
1;
#X msg 76 155 create;
#X msg 119 178 destroy;
#X obj 745 785 pix_image;
#X obj 747 1114 pix_texture;
#X obj 747 1093 pix_lumaoffset;
#X obj 758 752 gemhead 49;
#X obj 403 18 adc~;
#X obj 33 280 tgl 15 0 empty empty empty 17 7 0 10 -262144 -1 -1 1
1;
#X obj 403 51 rev1~;
#X obj 72 306 tabwrite~ mic2;
#N canvas 0 22 450 278 (subpatch) 0;
#X array mic2 100 float 3;
#A 0 5.30936e-05 8.23898e-05 0.000112387 0.00011543 0.000139588 0.000186275
0.000225644 0.000262084 0.000253878 0.000171046 0.000122855 0.00014016
0.000157147 0.000183827 0.00022819 0.000271286 0.000268392 0.000224597
0.000144495 -1.07416e-05 -0.000186635 -0.000302433 -0.000331454 -0.000295273
-0.00022397 -0.000114643 2.42006e-05 0.000127771 0.000159478 0.000130304
7.27712e-05 9.98532e-06 -2.21202e-05 -9.02843e-06 5.5776e-05 0.000120409
0.000133685 0.000108654 8.47832e-05 5.42665e-05 1.31613e-05 -3.62023e-05
-7.53156e-05 -9.79008e-05 -4.3201e-05 6.71006e-05 0.000192085 0.000311141
0.000370989 0.000366526 0.000317216 0.000242283 0.000152279 3.34302e-05
-7.87261e-05 -0.000111721 -7.97785e-05 -5.62121e-05 -9.01135e-05 -0.000139957
-0.000224931 -0.000336139 -0.00041239 -0.000440392 -0.000380663 -0.000236535
-4.49173e-05 0.000148214 0.000225177 0.000175492 5.48847e-05 -8.82259e-05
-0.000217429 -0.000291041 -0.000278096 -0.000179301 -6.92156e-05 1.19945e-05
1.43087e-06 -8.18777e-05 -0.000202966 -0.000321012 -0.000369946 -0.000355736
-0.000297345 -0.000224654 -0.000131153 -4.29365e-05 -2.62096e-05 -7.96596e-05
-0.000183946 -0.000294836 -0.000370977 -0.000377958 -0.000276151 -6.78925e-05
0.000139752 0.000255049 0.000301869 0.000243689;
#X coords 0 1 100 -1 200 140 1;
#X restore 1489 2 graph;
#X obj 403 142 env~ 16384 8192;
#X floatatom 403 161 5 0 0 0 - - -;
#X obj 30 69 loadbang;
#X obj 544 36 loadbang;
#X obj 745 721 randPattern;
#X obj 80 227 loadbang;
#X msg 110 110 \; pd dsp 1 \;;
#X obj 775 904 f;
#X floatatom 775 925 5 0 0 0 - - -;
#X obj 775 968 cos;
#X obj 773 862 tgl 15 0 empty empty empty 17 7 0 10 -262144 -1 -1 1
1;
#X floatatom 775 1032 5 0 0 0 - - -;
#X obj 775 945 / 100;
#X obj 811 905 + 5;
#X obj 746 692 loadbang;
#X obj 407 575 tgl 15 0 empty empty empty 17 7 0 10 -262144 -1 -1 0
1;
#X obj 407 685 f;
#X obj 328 227 loadbang;
#X floatatom 328 314 5 0 0 0 - - -;
#X obj 667 204 loadbang;
#X floatatom 668 293 5 0 0 0 - - -;
#X obj 526 328 expr if ($f1 > $f2 \, 1 \, 0);
#X obj 693 543 route 1 0;
#X obj 433 685 +;
#X obj 55 746 expr if ($f1 < 0 \, 0 \, $f1);
#X obj 56 773 route 0;
#X obj 56 804 bang;
#X msg 57 831 1;
#X obj 411 953 0;
#X obj 450 975 bang;
#X obj 73 279 metro 75;
#X obj 62 614 line;
#X obj 747 1135 rectangle 8.92 5;
#X obj 407 755 expr if ($f1 > 25 \, 25 \, $f1);
#X obj 408 804 route 25;
#X text 180 303 첫번째 허들 값 조정;
#X text 727 229 두번째 허들 값 조정;
#X obj 461 685 % 27;
#X msg 757 570 -1;
#X msg 62 585 0.5 340;
#X obj 776 989 * 10;
#X obj 776 1010 + 10;
#X obj 842 904 % 628;
#X obj 528 95 hsl 128 15 0 100 0 0 empty empty 처음_허들을_민감하게_하려면_낮춰
-2 -8 0 10 -257985 -1 -1 10160 1;
#X floatatom 525 143 5 0 0 0 - - -;
#X obj 357 294 hsl 128 15 0 100 0 0 empty empty 첫번째_허들을_낮게_하려면_낮춰
-2 -8 0 10 -4032 -1 -1 6985 1;
#X obj 667 261 hsl 128 15 0 100 0 0 empty empty 두번째_허들을_낮게_하려면_낮춰
-2 -8 0 10 -4032 -1 -1 8890 1;
#X obj 1094 321 f;
#X obj 1138 322 + 1;
#X obj 1042 635 gemhead 53;
#X msg 1105 466 text Hello;
#X msg 1160 730 font Fontfabric.otf;
#X obj 1041 746 text2d;
#X msg 1121 722 50;
#X msg 1131 493 text Tell me your Story;
#X floatatom 1094 342 5 0 0 0 - - -;
#X msg 1072 438 text;
#X msg 1163 521 text Say something on mic;
#X msg 1228 364 text;
#X msg 1233 408 text I'm listening.. tell me more;
#X obj 1173 671 loadbang;
#X msg 693 569 1;
#X msg 543 57 80;
#X msg 668 225 70;
#X obj 457 948 delay 300;
#X obj 62 554 route 0;
#X floatatom 530 370 5 0 0 0 - - -;
#X obj 184 338 expr if ($f1 > $f2 \, $f1 \, 0);
#X obj 404 549 expr if ($f1 == 0 \, 0 \, 1);
#X obj 536 977 bang;
#X msg 450 1041 0;
#X obj 535 954 delay 5000;
#X msg 372 880 10, f 4;
#X msg 592 1112 20;
#X obj 1254 272 f;
#X obj 1282 272 + 1;
#X floatatom 1254 293 5 0 0 0 - - -;
#X obj 986 132 route 0;
#X obj 1226 104 route 0;
#X obj 1068 175 metro 20000;
#X obj 1254 234 metro 20000;
#X msg 1228 129 1;
#X msg 986 153 1;
#X obj 1180 323 % 50;
#X obj 1310 272 % 40;
#X obj 1094 374 route 0 2 5 12 20;
#X obj 1254 321 route 2 5;
#X obj 774 831 loadbang;
#X obj 1033 372 loadbang;
#X obj 102 78 delay 500;
#X text 61 493 1단계 - 소리가 들어오지 않을 때;
#X obj 62 635 s pixelSize;
#X obj 57 852 s reset;
#X obj 354 657 r reset;
#X obj 406 711 s currentParameter;
#X obj 56 721 r currentParameter;
#X obj 183 385 s envelope;
#X obj 60 529 r envelope;
#X obj 404 520 r envelope;
#X obj 412 1124 s parametTrigger;
#X obj 332 497 r parametTrigger;
#X obj 592 1070 s parametTrigger;
#X obj 372 901 s endParameter;
#X obj 592 1133 s endParameter;
#X obj 450 1014 s 4stepPause;
#X obj 445 16 r 4stepPause;
#X obj 691 829 r 4stepPause;
#X obj 450 1067 s 4stepParameter;
#X obj 565 124 r 4stepParameter;
#X obj 822 1066 r 4stepParameter;
#X obj 536 1012 s restart;
#X obj 842 830 r restart;
#X obj 603 36 r restart;
#X obj 445 37 r restart;
#X obj 986 106 r envelope;
#X obj 540 350 s 3step;
#X obj 692 502 r 3step;
#X obj 1226 75 r 3step;
#X floatatom 692 523 5 0 0 0 - - -;
#X obj 692 596 s stepParameter;
#X obj 520 636 r stepParameter;
#X obj 184 359 s 2step;
#X obj 1168 29 r endParameter;
#X msg 1168 50 2;
#X obj 775 883 metro 70;
#X obj 407 599 metro 340;
#X obj 30 202 gemwin;
#X msg 196 122 dimen 1350 800;
#X obj 30 90 delay 100;
#X msg 328 248 55;
#X text 690 466 2 Step : + 1 3 Step : - 1, f 14;
#X text 327 476 2~4 Step Pixel Controller;
#X text 708 664 2 ~ 4 Step lumaoOffset Controller;
#X text 58 881 In 2step \, Maintain Pixel Size, f 30;
#X text 184 1065 parameter of Each Step End or Start;
#X obj 966 806 cnv 15 500 400 empty empty empty 20 12 0 14 -204800
-66577 0;
#X obj 1129 1091 multiTextile;
#X floatatom 1084 954 5 0 0 0 - - -;
#X obj 1172 918 + 0.25;
#X obj 1325 953 loadbang;
#X obj 1172 897 * -0.01;
#X obj 1110 1006 expr if($f2 == 10 \, 0 \, $f1);
#X msg 1325 980 20;
#X obj 1001 895 loadbang;
#X msg 1001 916 0.5;
#X obj 1082 894 r pixelSize;
#X obj 1171 847 r currentParameter;
#X obj 1090 1063 r envelope;
#X obj 1264 921 r endParameter;
#X obj 1129 1146 dac~;
#X text 970 820 Pixel & Audio Output;
#X text 1171 6 3Step;
#X text 987 75 2Step;
#X connect 3 0 141 0;
#X connect 4 0 141 0;
#X connect 5 0 141 0;
#X connect 6 0 8 0;
#X connect 7 0 47 0;
#X connect 8 0 7 0;
#X connect 9 0 6 0;
#X connect 10 0 12 0;
#X connect 11 0 13 0;
#X connect 11 0 45 0;
#X connect 12 0 13 0;
#X connect 12 0 15 0;
#X connect 15 0 16 0;
#X connect 16 0 82 0;
#X connect 16 0 36 0;
#X connect 17 0 104 0;
#X connect 17 0 142 0;
#X connect 17 0 143 0;
#X connect 18 0 77 0;
#X connect 19 0 6 0;
#X connect 20 0 11 0;
#X connect 22 0 23 0;
#X connect 22 0 28 0;
#X connect 23 0 27 0;
#X connect 24 0 55 0;
#X connect 25 0 139 0;
#X connect 26 0 8 1;
#X connect 26 0 8 2;
#X connect 27 0 24 0;
#X connect 28 0 57 0;
#X connect 29 0 19 0;
#X connect 30 0 140 0;
#X connect 31 0 38 0;
#X connect 31 0 48 0;
#X connect 31 0 109 0;
#X connect 32 0 144 0;
#X connect 33 0 82 1;
#X connect 34 0 78 0;
#X connect 35 0 36 1;
#X connect 36 0 81 0;
#X connect 36 0 130 0;
#X connect 37 0 76 0;
#X connect 37 1 53 0;
#X connect 38 0 52 0;
#X connect 39 0 40 0;
#X connect 40 0 41 0;
#X connect 41 0 42 0;
#X connect 42 0 107 0;
#X connect 43 0 114 0;
#X connect 44 0 85 0;
#X connect 44 0 119 0;
#X connect 45 0 13 0;
#X connect 46 0 106 0;
#X connect 48 0 49 0;
#X connect 49 0 43 0;
#X connect 49 0 79 0;
#X connect 49 0 86 0;
#X connect 49 0 87 0;
#X connect 52 0 31 1;
#X connect 53 0 134 0;
#X connect 54 0 46 0;
#X connect 55 0 56 0;
#X connect 56 0 26 0;
#X connect 57 0 22 1;
#X connect 58 0 59 0;
#X connect 59 0 12 1;
#X connect 60 0 33 0;
#X connect 61 0 35 0;
#X connect 62 0 63 0;
#X connect 62 0 70 0;
#X connect 63 0 98 0;
#X connect 64 0 67 0;
#X connect 65 0 67 0;
#X connect 66 0 67 0;
#X connect 68 0 67 1;
#X connect 69 0 67 0;
#X connect 70 0 100 0;
#X connect 71 0 67 0;
#X connect 72 0 67 0;
#X connect 73 0 67 0;
#X connect 74 0 67 0;
#X connect 75 0 68 0;
#X connect 75 0 66 0;
#X connect 76 0 134 0;
#X connect 77 0 58 0;
#X connect 78 0 61 0;
#X connect 79 0 44 0;
#X connect 80 0 54 0;
#X connect 82 0 111 0;
#X connect 82 0 136 0;
#X connect 83 0 30 0;
#X connect 84 0 88 0;
#X connect 84 0 116 0;
#X connect 84 0 125 0;
#X connect 85 0 122 0;
#X connect 86 0 84 0;
#X connect 87 0 117 0;
#X connect 88 0 118 0;
#X connect 89 0 90 0;
#X connect 89 0 91 0;
#X connect 90 0 99 0;
#X connect 91 0 101 0;
#X connect 92 0 97 0;
#X connect 92 1 94 0;
#X connect 93 0 96 0;
#X connect 93 1 95 0;
#X connect 94 0 62 0;
#X connect 95 0 89 0;
#X connect 96 0 89 0;
#X connect 97 0 62 0;
#X connect 98 0 62 1;
#X connect 99 0 89 1;
#X connect 100 0 71 0;
#X connect 100 1 71 0;
#X connect 100 2 65 0;
#X connect 100 3 69 0;
#X connect 100 4 72 0;
#X connect 101 0 73 0;
#X connect 101 1 74 0;
#X connect 102 0 25 0;
#X connect 103 0 71 0;
#X connect 104 0 21 0;
#X connect 108 0 31 0;
#X connect 110 0 39 0;
#X connect 112 0 80 0;
#X connect 113 0 83 0;
#X connect 115 0 30 0;
#X connect 120 0 12 2;
#X connect 121 0 25 0;
#X connect 123 0 59 0;
#X connect 124 0 8 1;
#X connect 124 0 8 2;
#X connect 126 0 25 0;
#X connect 127 0 77 0;
#X connect 128 0 12 2;
#X connect 129 0 92 0;
#X connect 131 0 133 0;
#X connect 132 0 93 0;
#X connect 133 0 37 0;
#X connect 135 0 38 1;
#X connect 137 0 138 0;
#X connect 138 0 91 0;
#X connect 139 0 22 0;
#X connect 140 0 31 0;
#X connect 142 0 141 0;
#X connect 143 0 4 0;
#X connect 143 0 3 0;
#X connect 144 0 60 0;
#X connect 151 0 164 0;
#X connect 151 0 164 1;
#X connect 152 0 156 0;
#X connect 153 0 152 0;
#X connect 154 0 157 0;
#X connect 155 0 153 0;
#X connect 156 0 151 1;
#X connect 157 0 156 1;
#X connect 158 0 159 0;
#X connect 159 0 152 0;
#X connect 160 0 152 0;
#X connect 161 0 155 0;
#X connect 162 0 151 0;
#X connect 163 0 156 1;
