#N canvas 622 23 756 785 10;
#X obj 34 249 translateXYZ 3 0 0;
#X obj 34 163 separator;
#X obj 34 123 inlet;
#X floatatom 42 480 5 0 0 0 - - -;
#X floatatom 93 479 5 0 0 0 - - -;
#X obj 41 12 loadbang;
#X msg 41 33 1;
#X obj 40 62 * \$1;
#X obj 83 62 * \$2;
#X floatatom 44 603 5 0 0 0 - - -;
#X obj 45 555 f;
#X obj 96 555 t b f;
#X obj 402 51 route 0 1 2 3 4 5 6 7 8 9 10 11;
#X obj 36 721 % 11;
#X obj 34 193 color, f 21;
#X obj 42 521 * 13;
#X obj 44 582 *;
#X obj 93 499 + 15.5;
#X obj 93 520 * 5;
#X obj 43 628 f;
#X obj 43 672 *;
#X obj 91 629 t b f;
#X floatatom 90 605 5 0 0 0 - - -;
#X obj 90 584 inlet;
#X obj 563 368 unpack 0.1 0.1 0.1;
#X msg 564 82 0.914 0.609 0.56;
#X msg 564 102 0.949219 0.804688 0.78125;
#X msg 564 124 0.816406 0.488281 0.445312;
#X msg 564 145 0.996094 0.742188 0.695312;
#X msg 564 166 0.9375 0.398438 0.398438;
#X msg 564 187 0.992188 0.289062 0.292969;
#X msg 564 209 0.515625 0.289062 0.285156;
#X msg 564 230 0.890625 0.203125 0.203125;
#X msg 564 251 0.675781 0.269531 0.273438;
#X msg 564 272 0.804688 0.46875 0.464844;
#X msg 564 293 0.289062 0.0703125 0.0664062;
#X msg 564 314 0.953125 0.515625 0.515625;
#X obj 474 433 inlet;
#X obj 563 403 pack 0.1 0.1 0.1 1;
#X obj 34 400 square 0.25;
#X obj 474 476 line;
#X msg 474 455 \$1 170;
#X obj 42 500 + 7.5;
#X msg 794 69 60;
#X msg 794 89 63;
#X msg 794 111 67;
#X msg 794 132 74;
#X msg 794 153 65;
#X msg 794 174 68;
#X msg 794 196 58;
#X msg 794 217 67;
#X msg 794 238 74;
#X msg 794 259 60;
#X msg 794 280 65;
#X msg 794 301 63;
#X obj 795 398 mtof;
#X obj 795 479 phasor~;
#X obj 811 587 *~ 500;
#X obj 795 452 line~;
#X obj 811 614 +~ 520;
#X obj 795 425 pack 0 200;
#X obj 795 641 vcf~ 5;
#X obj 795 506 *~ 0.12;
#X obj 795 533 -~ 0.06;
#X obj 795 662 outlet~;
#X floatatom 473 562 5 0 0 0 - - -;
#X floatatom 474 705 5 0 0 0 - - -;
#X obj 474 739 outlet;
#X obj 485 673 * 2;
#X floatatom 474 622 5 0 0 0 - - -;
#X obj 473 586 * -1;
#X obj 473 642 + 0.5;
#X obj 527 508 loadbang;
#X msg 527 529 0;
#X obj 811 559 phasor~ 2;
#X connect 0 0 39 0;
#X connect 1 0 14 0;
#X connect 2 0 1 0;
#X connect 3 0 42 0;
#X connect 4 0 17 0;
#X connect 5 0 6 0;
#X connect 6 0 7 0;
#X connect 6 0 8 0;
#X connect 7 0 0 1;
#X connect 7 0 3 0;
#X connect 8 0 0 2;
#X connect 8 0 4 0;
#X connect 9 0 19 0;
#X connect 10 0 16 0;
#X connect 11 0 10 0;
#X connect 11 1 16 1;
#X connect 12 0 25 0;
#X connect 12 0 43 0;
#X connect 12 1 26 0;
#X connect 12 1 44 0;
#X connect 12 2 27 0;
#X connect 12 2 45 0;
#X connect 12 3 28 0;
#X connect 12 3 46 0;
#X connect 12 4 29 0;
#X connect 12 4 47 0;
#X connect 12 5 30 0;
#X connect 12 5 48 0;
#X connect 12 6 31 0;
#X connect 12 6 50 0;
#X connect 12 7 32 0;
#X connect 12 7 49 0;
#X connect 12 8 33 0;
#X connect 12 8 51 0;
#X connect 12 9 34 0;
#X connect 12 9 52 0;
#X connect 12 10 35 0;
#X connect 12 10 53 0;
#X connect 12 11 36 0;
#X connect 12 11 54 0;
#X connect 13 0 12 0;
#X connect 14 0 0 0;
#X connect 15 0 10 0;
#X connect 16 0 9 0;
#X connect 17 0 18 0;
#X connect 18 0 11 0;
#X connect 19 0 20 0;
#X connect 20 0 13 0;
#X connect 21 0 19 0;
#X connect 21 1 20 1;
#X connect 22 0 21 0;
#X connect 23 0 22 0;
#X connect 24 0 38 0;
#X connect 24 1 38 1;
#X connect 24 2 38 2;
#X connect 25 0 24 0;
#X connect 26 0 24 0;
#X connect 27 0 24 0;
#X connect 28 0 24 0;
#X connect 29 0 24 0;
#X connect 30 0 24 0;
#X connect 31 0 24 0;
#X connect 32 0 24 0;
#X connect 33 0 24 0;
#X connect 34 0 24 0;
#X connect 35 0 24 0;
#X connect 36 0 24 0;
#X connect 37 0 41 0;
#X connect 38 0 14 1;
#X connect 40 0 65 0;
#X connect 40 0 39 1;
#X connect 41 0 40 0;
#X connect 42 0 15 0;
#X connect 43 0 55 0;
#X connect 44 0 55 0;
#X connect 45 0 55 0;
#X connect 46 0 55 0;
#X connect 47 0 55 0;
#X connect 48 0 55 0;
#X connect 49 0 55 0;
#X connect 50 0 55 0;
#X connect 51 0 55 0;
#X connect 52 0 55 0;
#X connect 53 0 55 0;
#X connect 54 0 55 0;
#X connect 55 0 60 0;
#X connect 56 0 62 0;
#X connect 57 0 59 0;
#X connect 58 0 56 0;
#X connect 59 0 61 1;
#X connect 60 0 58 0;
#X connect 61 0 64 0;
#X connect 62 0 63 0;
#X connect 63 0 61 0;
#X connect 65 0 70 0;
#X connect 66 0 67 0;
#X connect 68 0 66 0;
#X connect 69 0 71 0;
#X connect 70 0 69 0;
#X connect 71 0 68 0;
#X connect 72 0 73 0;
#X connect 73 0 65 0;
#X connect 74 0 57 0;
#X coords 0 785 1 784 90 60 0;
